<svg width="17" height="17" viewBox="0 0 17 17" fill="none" xmlns="http://www.w3.org/2000/svg">
<g clip-path="url(#clip0_1_1050)">
<g clip-path="url(#clip1_1_1050)">
<path d="M14.2214 3.43311H10.8929C9.74761 3.43311 8.75238 4.22596 8.50238 5.345C8.25 4.22596 7.25714 3.43311 6.1119 3.43311H2.78571C2.15476 3.43311 1.64285 3.945 1.64285 4.57596V10.4283C1.64285 11.0593 2.15476 11.5712 2.78571 11.5712H4.92142C7.35476 11.5712 8.08095 12.1521 8.42857 13.3569C8.44523 13.4235 8.55238 13.4235 8.57142 13.3569C8.92142 12.1521 9.64762 11.5712 12.0786 11.5712H14.2143C14.8452 11.5712 15.3571 11.0593 15.3571 10.4283V4.57834C15.3571 3.94977 14.85 3.43786 14.2214 3.43311ZM7.40476 9.75215C7.40476 9.7974 7.36904 9.83546 7.32142 9.83546H3.50476C3.45952 9.83546 3.42142 9.7998 3.42142 9.75215V9.20691C3.42142 9.16165 3.45714 9.1236 3.50476 9.1236H7.3238C7.36904 9.1236 7.40714 9.15925 7.40714 9.20691V9.75215H7.40476ZM7.40476 8.30215C7.40476 8.3474 7.36904 8.38546 7.32142 8.38546H3.50476C3.45952 8.38546 3.42142 8.3498 3.42142 8.30215V7.75691C3.42142 7.71165 3.45714 7.6736 3.50476 7.6736H7.3238C7.36904 7.6736 7.40714 7.70925 7.40714 7.75691V8.30215H7.40476ZM7.40476 6.85215C7.40476 6.8974 7.36904 6.93546 7.32142 6.93546H3.50476C3.45952 6.93546 3.42142 6.8998 3.42142 6.85215V6.30691C3.42142 6.26165 3.45714 6.2236 3.50476 6.2236H7.3238C7.36904 6.2236 7.40714 6.25925 7.40714 6.30691V6.85215H7.40476ZM13.5786 9.74977C13.5786 9.79503 13.5429 9.83308 13.4952 9.83308H9.67856C9.63333 9.83308 9.59523 9.79743 9.59523 9.74977V9.20453C9.59523 9.15928 9.63094 9.12122 9.67856 9.12122H13.4976C13.5428 9.12122 13.5809 9.15688 13.5809 9.20453V9.74977H13.5786ZM13.5786 8.29977C13.5786 8.34503 13.5429 8.38308 13.4952 8.38308H9.67856C9.63333 8.38308 9.59523 8.34743 9.59523 8.29977V7.75453C9.59523 7.70928 9.63094 7.67122 9.67856 7.67122H13.4976C13.5428 7.67122 13.5809 7.70688 13.5809 7.75453V8.29977H13.5786ZM13.5786 6.84977C13.5786 6.89503 13.5429 6.93308 13.4952 6.93308H9.67856C9.63333 6.93308 9.59523 6.89743 9.59523 6.84977V6.30691C9.59523 6.26165 9.63094 6.2236 9.67856 6.2236H13.4976C13.5428 6.2236 13.5809 6.25925 13.5809 6.30691V6.84977H13.5786Z" fill="black"/>
</g>
</g>
<defs>
<clipPath id="clip0_1_1050">
<rect width="16" height="16" fill="white" transform="translate(0.5 0.419922)"/>
</clipPath>
<clipPath id="clip1_1_1050">
<rect width="16" height="16" fill="white" transform="translate(0.5 0.419922)"/>
</clipPath>
</defs>
</svg>
