<svg width="33" height="33" viewBox="0 0 33 33" fill="none" xmlns="http://www.w3.org/2000/svg">
<g clip-path="url(#clip0_1_294)">
<g clip-path="url(#clip1_1_294)">
<g clip-path="url(#clip2_1_294)">
<path d="M7.5 0.200012C7.76522 0.200012 8.01957 0.305369 8.20711 0.492905C8.39464 0.680442 8.5 0.934796 8.5 1.20001V2.20001H24.5V1.20001C24.5 0.934796 24.6054 0.680442 24.7929 0.492905C24.9804 0.305369 25.2348 0.200012 25.5 0.200012C25.7652 0.200012 26.0196 0.305369 26.2071 0.492905C26.3946 0.680442 26.5 0.934796 26.5 1.20001V2.20001H28.5C29.5609 2.20001 30.5783 2.62144 31.3284 3.37159C32.0786 4.12173 32.5 5.13915 32.5 6.20001V28.2C32.5 29.2609 32.0786 30.2783 31.3284 31.0284C30.5783 31.7786 29.5609 32.2 28.5 32.2H4.5C3.43913 32.2 2.42172 31.7786 1.67157 31.0284C0.921427 30.2783 0.5 29.2609 0.5 28.2V10.2H32.5V8.20001H0.5V6.20001C0.5 5.13915 0.921427 4.12173 1.67157 3.37159C2.42172 2.62144 3.43913 2.20001 4.5 2.20001H6.5V1.20001C6.5 0.934796 6.60536 0.680442 6.79289 0.492905C6.98043 0.305369 7.23478 0.200012 7.5 0.200012Z" fill="black"/>
</g>
</g>
</g>
<defs>
<clipPath id="clip0_1_294">
<rect width="32" height="32" fill="white" transform="translate(0.5 0.200012)"/>
</clipPath>
<clipPath id="clip1_1_294">
<rect width="32" height="32" fill="white" transform="translate(0.5 0.200012)"/>
</clipPath>
<clipPath id="clip2_1_294">
<rect width="32" height="32" fill="white" transform="translate(0.5 0.200012)"/>
</clipPath>
</defs>
</svg>
