<svg width="33" height="36" viewBox="0 0 33 36" fill="none" xmlns="http://www.w3.org/2000/svg">
<g clip-path="url(#clip0_1_305)">
<g clip-path="url(#clip1_1_305)">
<g clip-path="url(#clip2_1_305)">
<path d="M16.5 35.2C16.5 35.2 28.5 23.828 28.5 15.2C28.5 12.0174 27.2357 8.96517 24.9853 6.71473C22.7348 4.46429 19.6826 3.20001 16.5 3.20001C13.3174 3.20001 10.2652 4.46429 8.01472 6.71473C5.76428 8.96517 4.5 12.0174 4.5 15.2C4.5 23.828 16.5 35.2 16.5 35.2ZM16.5 21.2C14.9087 21.2 13.3826 20.5679 12.2574 19.4427C11.1321 18.3174 10.5 16.7913 10.5 15.2C10.5 13.6087 11.1321 12.0826 12.2574 10.9574C13.3826 9.83215 14.9087 9.20001 16.5 9.20001C18.0913 9.20001 19.6174 9.83215 20.7426 10.9574C21.8679 12.0826 22.5 13.6087 22.5 15.2C22.5 16.7913 21.8679 18.3174 20.7426 19.4427C19.6174 20.5679 18.0913 21.2 16.5 21.2Z" fill="black"/>
</g>
</g>
</g>
<defs>
<clipPath id="clip0_1_305">
<rect width="32" height="32" fill="white" transform="translate(0.5 3.20001)"/>
</clipPath>
<clipPath id="clip1_1_305">
<rect width="32" height="32" fill="white" transform="translate(0.5 3.20001)"/>
</clipPath>
<clipPath id="clip2_1_305">
<rect width="32" height="32" fill="white" transform="translate(0.5 3.20001)"/>
</clipPath>
</defs>
</svg>
