<svg width="33" height="36" viewBox="0 0 33 36" fill="none" xmlns="http://www.w3.org/2000/svg">
<g clip-path="url(#clip0_1_327)">
<g clip-path="url(#clip1_1_327)">
<g clip-path="url(#clip2_1_327)">
<path d="M0.6 10.31C0.801636 9.42644 1.29731 8.63758 2.00584 8.07257C2.71438 7.50756 3.59377 7.19989 4.5 7.19995H28.5C29.4062 7.19989 30.2856 7.50756 30.9942 8.07257C31.7027 8.63758 32.1984 9.42644 32.4 10.31L16.5 20.028L0.6 10.31ZM0.5 12.594V26.802L12.106 19.686L0.5 12.594ZM14.022 20.86L0.882 28.914C1.20665 29.5985 1.71905 30.1768 2.35956 30.5815C3.00007 30.9862 3.74235 31.2007 4.5 31.2H28.5C29.2575 31.2001 29.9995 30.9852 30.6397 30.5801C31.2798 30.1751 31.7918 29.5966 32.116 28.912L18.976 20.858L16.5 22.372L14.022 20.86ZM20.894 19.688L32.5 26.802V12.594L20.894 19.686V19.688Z" fill="black"/>
</g>
</g>
</g>
<defs>
<clipPath id="clip0_1_327">
<rect width="32" height="32" fill="white" transform="translate(0.5 3.19995)"/>
</clipPath>
<clipPath id="clip1_1_327">
<rect width="32" height="32" fill="white" transform="translate(0.5 3.19995)"/>
</clipPath>
<clipPath id="clip2_1_327">
<rect width="32" height="32" fill="white" transform="translate(0.5 3.19995)"/>
</clipPath>
</defs>
</svg>
