<svg
      width="64" height="64" viewBox="0 0 64 64"
      fill="none" xmlns="http://www.w3.org/2000/svg"
      aria-label="My Portfolio Logo"
    >
      {/* 그라데이션 배경 */}
    <defs>
      <linearGradient id="portfolioGrad" x1="0%" y1="0%" x2="100%" y2="100%">
        <stop offset="0%" stopColor="#667EEA"/>
        <stop offset="100%" stopColor="#764BA2"/>
      </linearGradient>
    </defs>
    
    {/* 배경 */}
    <rect x="2" y="2" width="44" height="44" rx="8" fill="url(#portfolioGrad)"/>
    
    {/* 모니터/브라우저 프레임 */}
    <rect x="8" y="10" width="32" height="22" rx="2" fill="white"/>
    <rect x="8" y="10" width="32" height="4" fill="#E5E7EB"/>
    
    {/* 브라우저 버튼들 */}
    <circle cx="11" cy="12" r="1" fill="#EF4444"/>
    <circle cx="14" cy="12" r="1" fill="#F59E0B"/>
    <circle cx="17" cy="12" r="1" fill="#10B981"/>
    
    {/* 코드/컨텐츠 영역 */}
    <rect x="10" y="16" width="28" height="14" fill="#F9FAFB"/>
    
    {/* 코드 라인들 */}
    <rect x="12" y="18" width="4" height="1" fill="#8B5CF6"/>
    <rect x="17" y="18" width="8" height="1" fill="#3B82F6"/>
    <rect x="12" y="20" width="12" height="1" fill="#10B981"/>
    <rect x="12" y="22" width="6" height="1" fill="#F59E0B"/>
    <rect x="12" y="24" width="14" height="1" fill="#6366F1"/>
    
    {/* 성능 최적화 표시 (화살표) */}
    <path d="M28 26 L32 22 L36 26 M32 22 L32 28" stroke="#10B981" strokeWidth="2" strokeLinecap="round"/>
    
    {/* 모니터 스탠드 */}
    <rect x="20" y="32" width="8" height="2" fill="#9CA3AF"/>
    <rect x="16" y="34" width="16" height="3" rx="1" fill="#6B7280"/>
  </svg>