<svg width="33" height="36" viewBox="0 0 33 36" fill="none" xmlns="http://www.w3.org/2000/svg">
<g clip-path="url(#clip0_1_278)">
<g clip-path="url(#clip1_1_278)">
<path d="M6.5 31.2C6.5 31.2 4.5 31.2 4.5 29.2C4.5 27.2 6.5 21.2 16.5 21.2C26.5 21.2 28.5 27.2 28.5 29.2C28.5 31.2 26.5 31.2 26.5 31.2H6.5ZM16.5 19.2C18.0913 19.2 19.6174 18.5679 20.7426 17.4427C21.8679 16.3174 22.5 14.7913 22.5 13.2C22.5 11.6087 21.8679 10.0826 20.7426 8.95737C19.6174 7.83215 18.0913 7.20001 16.5 7.20001C14.9087 7.20001 13.3826 7.83215 12.2574 8.95737C11.1321 10.0826 10.5 11.6087 10.5 13.2C10.5 14.7913 11.1321 16.3174 12.2574 17.4427C13.3826 18.5679 14.9087 19.2 16.5 19.2Z" fill="black"/>
</g>
</g>
<defs>
<clipPath id="clip0_1_278">
<rect width="32" height="32" fill="white" transform="translate(0.5 3.20001)"/>
</clipPath>
<clipPath id="clip1_1_278">
<rect width="32" height="32" fill="white" transform="translate(0.5 3.20001)"/>
</clipPath>
</defs>
</svg>
