<svg width="33" height="36" viewBox="0 0 33 36" fill="none" xmlns="http://www.w3.org/2000/svg">
<g clip-path="url(#clip0_1_338)">
<g clip-path="url(#clip1_1_338)">
<g clip-path="url(#clip2_1_338)">
<path d="M26.208 3.49201C26.0205 3.30453 25.7662 3.19922 25.501 3.19922C25.2358 3.19922 24.9815 3.30453 24.794 3.49201L21.5 6.78601L28.914 14.2L32.208 10.908C32.3011 10.8151 32.375 10.7048 32.4254 10.5833C32.4758 10.4618 32.5018 10.3315 32.5018 10.2C32.5018 10.0685 32.4758 9.93823 32.4254 9.81674C32.375 9.69525 32.3011 9.5849 32.208 9.492L26.208 3.49201ZM27.5 15.614L20.086 8.20001L7.08601 21.2H7.50001C7.76523 21.2 8.01958 21.3054 8.20712 21.4929C8.39465 21.6804 8.50001 21.9348 8.50001 22.2V23.2H9.50001C9.76523 23.2 10.0196 23.3054 10.2071 23.4929C10.3947 23.6804 10.5 23.9348 10.5 24.2V25.2H11.5C11.7652 25.2 12.0196 25.3054 12.2071 25.4929C12.3947 25.6804 12.5 25.9348 12.5 26.2V27.2H13.5C13.7652 27.2 14.0196 27.3054 14.2071 27.4929C14.3947 27.6804 14.5 27.9348 14.5 28.2V28.614L27.5 15.614ZM12.564 30.55C12.5219 30.4381 12.5002 30.3196 12.5 30.2V29.2H11.5C11.2348 29.2 10.9804 29.0946 10.7929 28.9071C10.6054 28.7196 10.5 28.4652 10.5 28.2V27.2H9.50001C9.23479 27.2 8.98044 27.0946 8.7929 26.9071C8.60537 26.7196 8.50001 26.4652 8.50001 26.2V25.2H7.50001C7.23479 25.2 6.98044 25.0946 6.7929 24.9071C6.60537 24.7196 6.50001 24.4652 6.50001 24.2V23.2H5.50001C5.38045 23.1998 5.2619 23.1781 5.15001 23.136L4.79201 23.492C4.69671 23.588 4.62187 23.7023 4.57201 23.828L0.572009 33.828C0.499268 34.0097 0.481461 34.2088 0.520795 34.4006C0.56013 34.5923 0.654877 34.7683 0.79329 34.9067C0.931703 35.0451 1.1077 35.1399 1.29945 35.1792C1.4912 35.2186 1.69028 35.2007 1.87201 35.128L11.872 31.128C11.9977 31.0781 12.112 31.0033 12.208 30.908L12.564 30.55Z" fill="black"/>
</g>
</g>
</g>
<defs>
<clipPath id="clip0_1_338">
<rect width="32" height="32" fill="white" transform="translate(0.5 3.19995)"/>
</clipPath>
<clipPath id="clip1_1_338">
<rect width="32" height="32" fill="white" transform="translate(0.5 3.19995)"/>
</clipPath>
<clipPath id="clip2_1_338">
<rect width="32" height="32" fill="white" transform="translate(0.5 3.19995)"/>
</clipPath>
</defs>
</svg>
