<svg width="33" height="36" viewBox="0 0 33 36" fill="none" xmlns="http://www.w3.org/2000/svg">
<g clip-path="url(#clip0_1_316)">
<g clip-path="url(#clip1_1_316)">
<g clip-path="url(#clip2_1_316)">
<path fill-rule="evenodd" clip-rule="evenodd" d="M4.27 4.222C4.61994 3.87258 5.04016 3.60152 5.50279 3.42678C5.96542 3.25204 6.45991 3.17762 6.95347 3.20845C7.44704 3.23927 7.92843 3.37464 8.36572 3.60558C8.80302 3.83652 9.18624 4.15775 9.49 4.548L13.08 9.16C13.738 10.006 13.97 11.108 13.71 12.148L12.616 16.528C12.5594 16.7549 12.5625 16.9925 12.6249 17.2178C12.6872 17.4432 12.8068 17.6485 12.972 17.814L17.886 22.728C18.0517 22.8935 18.2574 23.0133 18.4831 23.0757C18.7088 23.1381 18.9468 23.1409 19.174 23.084L23.552 21.99C24.0652 21.8617 24.6009 21.8517 25.1186 21.9609C25.6362 22.07 26.1223 22.2954 26.54 22.62L31.152 26.208C32.81 27.498 32.962 29.948 31.478 31.43L29.41 33.498C27.93 34.978 25.718 35.628 23.656 34.902C18.3784 33.0451 13.5865 30.0237 9.636 26.062C5.67457 22.112 2.65321 17.3209 0.795996 12.044C0.0719958 9.984 0.721996 7.77 2.202 6.29L4.27 4.222Z" fill="black"/>
</g>
</g>
</g>
<defs>
<clipPath id="clip0_1_316">
<rect width="32" height="32" fill="white" transform="translate(0.5 3.19995)"/>
</clipPath>
<clipPath id="clip1_1_316">
<rect width="32" height="32" fill="white" transform="translate(0.5 3.19995)"/>
</clipPath>
<clipPath id="clip2_1_316">
<rect width="32" height="32" fill="white" transform="translate(0.5 3.19995)"/>
</clipPath>
</defs>
</svg>
